<svg xmlns="http://www.w3.org/2000/svg" viewBox="0 0 40 40"><path stroke-linejoin="round" stroke-linecap="round" fill="green" d="M 31.4286 14.6667 h -6.8571 v -7.1111 a 3.5591 3.432 90 0 0 -3.4286 -3.5556 h -2.4377 a 2.3822 2.2971 90 0 0 -2.2629 2.035 l -0.9657 7.0127 l -4.088 6.3597 h -7.3886 v 16.5926 h 24 a 8.3058 8.0091 90 0 0 8 -8.2963 v -8.2963 a 4.7467 4.5771 90 0 0 -4.5714 -4.7407 z m -20.5715 18.9629 h -4.5714 v -11.8518 h 4.5714 z m 22.8571 -5.9259 a 5.933 5.7211 90 0 1 -5.7143 5.9259 h -14.857 v -12.6779 l 4.5234 -7.0364 l 1.04 -7.5449 h 2.4366 a 1.1852 1.1429 90 0 1 1.1429 1.1852 v 9.4815 h 9.1429 a 2.3727 2.288 90 0 1 2.2857 2.3704 Z"/></svg>