<svg xmlns="http://www.w3.org/2000/svg" viewBox="0 0 40 40">
  <path fill="darkcyan"
    d="M18.4 19.5v3.4q0 0.7 0.5 1.2t1.1 0.5q0.7 0 1.1-0.5t0.5-1.2v-3.4h3.2q0.7 0 1.1-0.5t0.5-1.2q0-0.7-0.5-1.2t-1.1-0.5h-3.2v-3.4q0-0.7-0.5-1.2t-1.1-0.5q-0.7 0-1.1 0.5t-0.5 1.2v3.4h-3.2q-0.7 0-1.1 0.5t-0.5 1.2q0 0.7 0.5 1.2t1.1 0.5h3.2zm-8 12l-3.7 4q-0.8 0.8-1.7 0.4t-1-1.6v-26.9q0-1.4 0.9-2.4t2.3-1h25.6q1.3 0 2.3 1t0.9 2.4v20.6q0 1.4-0.9 2.4t-2.3 1h-22.4zm-3.2-3.4h25.6v-20.6h-25.6v20.6zm0 0v-20.6v20.6Z" />
</svg>